<?xml version="1.0" encoding="UTF-8"?><svg id="Camada_2" xmlns="http://www.w3.org/2000/svg" xmlns:xlink="http://www.w3.org/1999/xlink" viewBox="65 67.63 198 34.74"><defs><style>.cls-1{clip-path:url(#clippath);}.cls-2{fill:none;}.cls-2,.cls-3,.cls-4,.cls-5,.cls-6,.cls-7,.cls-8,.cls-9,.cls-10,.cls-11,.cls-12{stroke-width:0px;}.cls-3{fill:#1d5297;}.cls-3,.cls-4,.cls-5,.cls-6,.cls-7,.cls-8,.cls-9,.cls-10{fill-rule:evenodd;}.cls-4{fill:#e05406;}.cls-5{fill:#c56428;}.cls-6{fill:#ffcf00;}.cls-7{fill:#f67922;}.cls-8,.cls-12{fill:#f1f3f6;}.cls-9{fill:#eca93e;}.cls-10{fill:#2e93ee;}.cls-11{fill:#1f2044;}</style><clipPath id="clippath"><rect class="cls-2" x="65" y="67.63" width="198" height="34.74"/></clipPath></defs><g id="Camada_1-2"><rect class="cls-2" width="328" height="170"/><g class="cls-1"><path class="cls-10" d="M84.28,93.07c-.99.95-1.99,2.25-2.98,3.2.48,2.48-.46,3.58.67,4.47.41.32,2.88,1,4.26.21.03-1.29-.68-1.67-1.44-2.16-.77-1.63-.49-4.12-.51-5.73"/><path class="cls-3" d="M84.85,101.31c-.08-.37-.25-.71-.49-.99-.24-.29-.56-.5-.91-.64.28.17.51.41.66.7.15.29.23.61.21.94.18,0,.35,0,.53,0Z"/><path class="cls-3" d="M86.03,101.05c-.08-.36-.25-.7-.49-.98-.24-.28-.55-.5-.9-.63.3.18.54.44.7.76.15.32.21.67.16,1.02.18-.04.36-.1.54-.18Z"/><path class="cls-10" d="M83.11,80.21c-.51.74-.74,2.29,3.34,4.56-.68,1.2-1.44,2.36-2.26,3.47-.54.54-.88,1.97-.34,2.68.27.38.59.73.94,1.04,0,0,1.35.25,1.93-.07.35-.38.57-.86.64-1.38.07-.51-.02-1.03-.25-1.5,0,0,3.44-3.57,3.22-4.64-.22-1.07-5.6-6.52-7.22-4.17Z"/><path class="cls-3" d="M87.11,89.02s-1.39,1.14-1.74,1.34c.28-.09.55-.2.81-.35,0,0,.62.75.16,1.38.12-.08.23-.19.31-.31.08-.12.14-.26.16-.41.03-.15.02-.3-.01-.44-.03-.14-.1-.28-.19-.4.19-.23.36-.48.51-.74l-.02-.07Z"/><path class="cls-10" d="M72.76,88.36c-.01.26-.09.52-.24.74-.23.37-.37.33.22.64.44.22.91.36,1.39.43.83.13.63.04.27-.72-.16-.34-.35-.67-.56-.98-.8-1.11-1.04-1.03-1.08-.11"/><path class="cls-10" d="M69.83,87.98c-.3.55.16.64.75.85.22.08.45.13.68.15.67.07.49-.02.2-.56-.18-.33-.38-.65-.59-.95-1.17-1.66-.61-.3-1.05.51"/><path class="cls-10" d="M67.31,87.73c0,.13,0,.25-.01.38-.04.46-.1.38.48.43.26.03.51.02.77,0,.74-.11.47-.36.08-.79-.13-.15-.28-.28-.43-.4-1.45-1.11-.9-.33-.88.38Z"/><path class="cls-10" d="M84.98,85.63c-.02-.56-.06-1.13-.14-1.69-.23-1.64.35-3.22-.66-4.56-.84-1.06-1.86-1.95-3.02-2.64-1.63-1.03-3.43-1.88-4.87-3.19.21-.7.45-1.38.74-2.05,0,0-4.16,2.12-4.12,2.8.04.65,1.09.59,1.58,1.39-.02.06-.03.11-.05.17-.48.34-2.42,1.77-2.28,2.47.15.7,1.44.56,2.03.96.02.23.05.46.09.68-.14.55-.12,1.13.07,1.67.22.35.29.31.42.38.12.39.26.77.41,1.15.36.92.93,1.77,1.24,2.71.23.65.28,1.35.14,2.02-.08.49-.32.93-.68,1.26-.47.37-1.07.54-1.66.47-.84-.13-1.65-.43-2.37-.88-1.93-1.02-4.52-.99-6.13.46-.3.27-.53.6-.69.96-.03.06-.03.14-.02.2s.06.13.12.17c.3.23.66,0,.93-.12.52-.23,1.24-.78,2.29-.38,1,.46,1.91,1.11,2.67,1.91.6.6,1.29,1.01,1.85,1.66.77.85,1.64,1.59,2.6,2.21,2.72,1.98,5.11,1.46,7.29-.83,1.74-1.83,1.87-3.83,2.12-6.28.1-1.02.13-2.05.09-3.08Z"/><path class="cls-6" d="M68.69,90.19c1.4.69,2.89,2.25,4.32,3.94,1.87,2.2,6.54,5.44,10.4.35,3.63-4.8,1.92-11.52,1.71-12.29l-.03-.08c-.12-.16-3.36-4.25-6.33-4.85-.79.68-.94,1.88.11,3.95,1.77,3.48,3.19,8.55.04,11.66-.47.48-1.04.84-1.68,1.05-2.24.73-3.43-.61-4.83-1.91-1.02-.98-2.33-1.61-3.72-1.81Z"/><path class="cls-9" d="M83.85,93.85c-1.36-.15-2.66-.68-3.74-1.52.78,1.12,1.97,1.89,3.31,2.14.15-.2.3-.41.43-.62Z"/><path class="cls-9" d="M77.55,94.16c.53,1.12,1.31,2.11,2.26,2.9.3-.07.6-.17.89-.3-1.28-.55-2.37-1.45-3.15-2.61Z"/><path class="cls-9" d="M72.79,93.86c.08.09.15.18.23.27.03.04.07.08.11.12-.07-.33-.04-.67.1-.98-.16.18-.31.38-.44.59Z"/><path class="cls-9" d="M74.34,95.41c.16.13.33.26.51.38-.15-.48-.15-.99.02-1.46-.21.34-.39.7-.52,1.08Z"/><path class="cls-9" d="M71.29,92.25c.12.12.24.24.36.37,0-.26.02-.52.08-.77-.16.12-.31.26-.44.4Z"/><path class="cls-9" d="M81.11,89.67c1.42-.43,2.93-.43,4.35,0,.04-.2.07-.4.1-.6-2.85-.66-4.45.61-4.45.61Z"/><path class="cls-9" d="M85.64,85.26c-.02-.24-.05-.47-.07-.7-3.02-.07-4.57,1.38-4.57,1.38,1.43-.72,3.06-.97,4.65-.69Z"/><path class="cls-9" d="M84.45,81.34c-.12-.13-.25-.28-.39-.43-3.21,0-4.07,1.48-4.07,1.48,1.33-.83,2.9-1.2,4.47-1.04Z"/><path class="cls-9" d="M85.6,84.8c-.08-.72-.2-1.43-.35-2.14-.08-.05-.15-.09-.23-.14-1.03-.66-5.53-3.37-6.85-4.15-.03.2-.03.4-.01.6,1.4,1.91,4.52,5.17,7.45,5.83Z"/><path class="cls-10" d="M75.38,92.57c.2-.3.48-.54.81-.69.33-.16.69-.22,1.05-.19,2.06.27,1.41,2.69.92,4.11-.34,1.03-.54,2.09-.58,3.18,0,1.41.54,1.83-.12,2.38-1.05.73-2.32,1.08-3.6,1-1.15-.26-1.18-2.59.65-3.19.42-1.07.57-2.23.45-3.37-.03-.79-.1-2.44.43-3.22"/><path class="cls-3" d="M74.94,102.32c.16-.02.32-.05.48-.09-.07-.34-.05-.69.04-1.02.1-.33.28-.63.52-.87-.33.21-.61.5-.79.85-.18.35-.27.74-.26,1.13Z"/><path class="cls-3" d="M73.83,102.34c-.08-.37-.08-.75.02-1.12.1-.37.28-.7.53-.98-.31.19-.57.45-.75.77-.18.32-.28.67-.29,1.04.13.15.3.25.48.3Z"/><path class="cls-3" d="M74.89,89.61s-.24,1.35.69,1.81c.78.38,1.75.4,2.23-.18.66-.79,1.65-2.42-1.02-4.01-1.65-.98-1.73,2.35-1.73,2.35l-.16.03Z"/><path class="cls-3" d="M75.12,83.12c.35.75.66,1.32.68,1.38,0,0,2.15-2.64,1.75-3.08-.44-.48-2.09,1.12-2.43,1.7Z"/><path class="cls-10" d="M77.21,79.26c2.31,2.21-2.49,5.13-2.49,5.13.52.33,1.18,1.44,1.68,2.26.5.82.69.68,1.29,1.36.6.68-1.12,1.69-1.12,1.69,0,0-5.77-3.09-5.75-5.07.69-1.41,1.6-2.69,2.7-3.81.68-.69,2.59-2.62,3.69-1.57Z"/><path class="cls-10" d="M74.97,88.6s-.43,2.11.84,2.72c.54.04,1.07-.06,1.55-.3,0,0,1.3-1.98.33-3-.97-1.02-2.72.59-2.72.59Z"/><path class="cls-3" d="M74.95,88.75s1.67.89,1.96.97c-.29.04-.59,0-.85-.13,0,0-.43.81.07,1.31,0,0-.77-.14-.49-1.4l-.7-.71.02-.03Z"/><path class="cls-10" d="M76.44,72.79s.87-5.07,2.99-5.16c1.4-.06,2.1,1.71,2.1,1.71.86,0,1.69.25,2.41.71.1-.19.26-.33.45-.42.19-.09.41-.11.61-.06.67.22,1.38,1.7,1.12,4.11.31.05.61.16.88.34.26.18.48.42.64.69-.09.12-.19.22-.32.3-.13.08-.26.13-.41.16-.44.04-2.34-.65-2.85-.2-.25.18-.45.42-.57.7-.12.29-.16.6-.11.9,0,0-2.09-.2-3.03-1.38-.94-1.18-1.74-3.48-3.91-2.42Z"/><path class="cls-12" d="M83.67,73.16s.52-1.7,1.53-2.18c.03.83.12,1.65.27,2.46-.59-.13-1.19-.22-1.8-.28Z"/><path class="cls-12" d="M79.13,69.67s1.29.61,2.14,3.27c-.97-.16-1.95-.25-2.93-.26.49-.93.75-1.96.78-3.01Z"/><path class="cls-3" d="M79.66,70.85c.32,0,.57.35.57.78s-.26.78-.57.78-.57-.35-.57-.78.26-.78.57-.78Z"/><path class="cls-3" d="M84.48,72.92c.13-.04.24-.11.32-.22.08-.11.13-.24.13-.37s-.04-.26-.13-.37c-.08-.11-.2-.18-.32-.22-.05,0-.09.01-.14.03-.13.15-.24.33-.31.52,0,.01,0,.03,0,.04-.02.14.02.28.11.39.08.11.21.18.34.2Z"/><path class="cls-6" d="M86.03,78.33c.75,0,1.49-.06,2.23-.18.56-.15,1.94-.38,1.81-2.17-.09-1.32-1.85-1.89-3.13-.97-1.05-.23-2.22-.93-3.27.12-.21.17-.36.4-.41.67-.06.26-.02.54.09.78,0,0-2.18-.35-2.94-1.45-.76-1.1-1.73-2.58-2.8-2.68-.4-.1-.82-.06-1.19.11-.37.17-.68.46-.87.82-.55,1.06-.82,2.98,3.24,6.02,4.07,3.04,5.86,3.86,6.75,3.85,1.13,0,1.2-.42,2.5-.6.66-.09,1.17-1.21.44-2.18-.72-.81-1.55-1.53-2.45-2.14Z"/><path class="cls-7" d="M78.83,74.14s-.88-1.01-1.73-.19c-.71.68-.18,1.81-.18,1.81,0,0,.05-.98.51-.91,0,0,.38,2.44,3.99,4.88,3.6,2.44,4.6,2.22,5.39,2.02.78-.21,1.68-.6,1.37-1.23-.3-.63-2.14-2.18-2.14-2.18,0,0-.82.61-2.39.07-2.15-.85-4.03-2.25-5.47-4.06,0,0,.07-.46.61-.2"/><path class="cls-5" d="M82.4,77.33s.05.02.08.04l-.08-.04Z"/><path class="cls-4" d="M85.8,78.45c-.7.25-1.47.23-2.16-.05-1.03-.39-1.99-.92-2.88-1.58-.78-.13-1.58-.1-2.35.07.82,1.11,1.84,2.07,3,2.83,3.6,2.44,4.6,2.22,5.39,2.02.27-.07.54-.16.8-.28-.07-.6-.26-1.18-.57-1.7-.31-.52-.73-.96-1.22-1.3Z"/><path class="cls-9" d="M84.85,75.85c.37-.12.65.37.16.59-.07.18.04.38.34.45-.94.19-.97-.86-.5-1.03Z"/><path class="cls-9" d="M88.98,75.7c-.3-.1-.53.31-.14.48.06.15-.03.31-.28.37.77.16.8-.71.41-.85"/><path class="cls-8" d="M84.74,79.93c.59.17,1-1.11,1.11-1.51-.47.19-.98.25-1.47.15.05.15.1.3.13.41.1.35,0,.87.23.94Z"/><path class="cls-8" d="M88.25,78.15c-.11.03-.23.05-.35.06.06.11.11.22.15.3.15.33.14.86.38.89.59.07.8-1.21.85-1.64-.32.18-.67.31-1.04.39Z"/><path class="cls-11" d="M144.62,91.05c.24,1.49,1.61,2.06,3.1,2.06s2.62-.65,2.66-1.41c.04-.77-.85-1.86-2.14-2.1l-3.54-.65c-3.26-.61-5.12-1.53-5.12-4.32,0-3.59,3.1-5.94,7.53-5.94s7.25,1.98,7.98,5.04l-5.12,1.01c-.16-1.09-1.21-2.06-2.94-2.06s-2.26.65-2.38,1.37.12.89,1.73,1.21l4.11.85c3.3.69,4.83,2.7,4.83,5.29,0,3.88-3.34,5.9-7.98,5.9s-7.65-1.49-8.22-5.13l5.48-1.13Z"/><path class="cls-11" d="M195.54,83.1c.08.71.12,1.43.12,2.14,0,7.15-5.08,12.28-12.17,12.28s-12.65-5.41-12.65-12.32,5.52-12.32,12.57-12.32c5.24,0,9.83,2.46,11.48,7.07l-5.56,1.61c-1.37-2.67-3.63-3.39-5.88-3.39-3.83,0-6.73,3.03-6.73,6.99-.02.92.14,1.83.48,2.69.34.86.84,1.63,1.48,2.29.64.66,1.41,1.17,2.26,1.53.85.35,1.76.53,2.67.52,3.1,0,5.32-1.61,6.2-4.2h-7.21v-4.89h12.93Z"/><path class="cls-11" d="M118,96.58h-5.76v-9.33h-9.87v9.33h-5.8v-23.58h5.8v9.21h9.87v-9.21h5.76v23.58Z"/><path class="cls-11" d="M138.82,87.74c0,5.57-4.43,9.33-9.63,9.33s-9.75-3.76-9.75-9.33,4.43-9.29,9.75-9.29,9.63,3.76,9.63,9.29ZM133.43,87.74c.03-.58-.06-1.16-.27-1.71-.2-.54-.51-1.04-.92-1.46-.4-.42-.88-.76-1.42-.98-.53-.23-1.11-.35-1.69-.35s-1.15.12-1.69.35c-.53.23-1.02.56-1.42.98-.4.42-.71.92-.92,1.46-.2.54-.29,1.13-.27,1.71-.03.59.07,1.18.27,1.73.21.55.52,1.06.93,1.48.41.43.89.77,1.44,1,.54.23,1.12.35,1.71.35,2.29,0,4.23-1.78,4.23-4.56Z"/><path class="cls-11" d="M171.05,95.78c-1.46.85-3.11,1.29-4.79,1.29-4.39,0-7.01-2.38-7.01-7.03v-6.66h-3.18v-4.44h3.14v-4.72l5.6-1.21v5.94h5.2v4.44h-5.2v6.14c0,1.82.89,2.58,2.34,2.58.9-.02,1.78-.26,2.58-.69l1.33,4.36Z"/><path class="cls-11" d="M213.43,85.4v11.18h-5.4v-1.34c-1.47,1.24-3.35,1.89-5.28,1.82-3.91,0-6.57-2.3-6.57-5.77s2.66-5.65,7.33-5.65h4.47v-.36c.02-.33-.03-.66-.15-.96-.12-.31-.3-.59-.53-.82-.23-.23-.51-.41-.82-.53s-.63-.17-.96-.15c-1.69,0-2.66.69-2.94,2.22l-5.28-1.09c.76-3.4,3.87-5.58,8.06-5.58,4.91.04,8.06,2.5,8.06,7.03ZM208.03,89.6v-.4h-3.87c-1.41,0-2.3.73-2.3,1.82s.97,1.82,2.46,1.82,3.71-1.25,3.71-3.23h0Z"/><path class="cls-11" d="M229.26,95.78c-1.45.86-3.11,1.32-4.79,1.33-4.39,0-7.01-2.38-7.01-7.03v-6.7h-3.18v-4.44h3.18v-4.72l5.6-1.21v5.94h5.2v4.44h-5.2v6.14c0,1.82.89,2.58,2.34,2.58.9-.02,1.78-.26,2.58-.69l1.29,4.36Z"/><path class="cls-11" d="M247.79,87.74c0,5.57-4.43,9.33-9.63,9.33s-9.79-3.76-9.79-9.33,4.43-9.29,9.75-9.29,9.67,3.76,9.67,9.29ZM242.39,87.74c.03-.58-.07-1.16-.27-1.71-.2-.54-.52-1.04-.92-1.46-.4-.42-.88-.76-1.42-.98-.53-.23-1.11-.35-1.69-.35s-1.15.12-1.69.35c-.53.23-1.02.56-1.42.98-.4.42-.71.92-.92,1.46-.2.54-.29,1.13-.27,1.71-.03.59.07,1.18.27,1.73.21.55.52,1.06.93,1.48.41.43.89.77,1.44,1,.54.23,1.12.35,1.71.35,2.3,0,4.23-1.78,4.23-4.56h0Z"/><path class="cls-11" d="M262.13,78.82l-.28,5.61h-1.01c-3.91,0-6.08,2.02-6.08,6.62v5.53h-5.6v-16.44l5.6-1.21v3.39c1.25-2.1,3.18-3.63,6.08-3.63.43-.02.87.02,1.29.12Z"/></g></g></svg>
